# xmcd CD database file
# Copyright (C) 1996 Ti Kan
#
# Track frame offsets:
#  150
#  10830
#  22792
#  35587
#  47217
#  58942
#  70190
#  80565
#  90352
#  101700
#  111637
#  121062
#  130065
#  140230
#  150545
#  163465
#  175362
#  187010
#  202362
#  212710
#  224142
#  233560
#  243325
#  257655
#  268505
#  282630
#  292800
#  302695
#  317957
#  327610
#
# Disc length: 4539 seconds
#
# Revision: 1
# Processed by: cddbd v1.4b41PL1 Copyright (c) Steve Scherf et al.
# Submitted via: CDWizzard Release:4.13
#
DISCID=d611b91e
DTITLE=Jim Reeves - The Complete Hit Collection
DYEAR=1900
DGENRE=
TTITLE0=He'll Have To Go
TTITLE1=Mexican Joe
TTITLE2=Bimbo
TTITLE3=Penny Candy
TTITLE4=Yonder Comes A Sucker
TTITLE5=According To My Heart
TTITLE6=Am I Losing You
TTITLE7=Waitin' For A Train
TTITLE8=Anna Marie
TTITLE9=Blue Boy
TTITLE10=Billy Bayou
TTITLE11=Home
TTITLE12=Partners
TTITLE13=I'm Gettin' Better
TTITLE14=Four Walls
TTITLE15=Welcome To My World
TTITLE16=I Missed Me
TTITLE17=The Blizzard
TTITLE18=Losing Your Love
TTITLE19=Adios Amigo
TTITLE20=I'm Gonna Change Everything
TTITLE21=Is This Me?
TTITLE22=Guilty
TTITLE23=I Guess I'm Crazy
TTITLE24=This Is It
TTITLE25=Is It Really Over?
TTITLE26=Snow Flake
TTITLE27=Blue Side Of Lonesome
TTITLE28=I Won't Come in While He's There
TTITLE29=Distant Drums
EXTD=
EXTT0=
EXTT1=
EXTT2=
EXTT3=
EXTT4=
EXTT5=
EXTT6=
EXTT7=
EXTT8=
EXTT9=
EXTT10=
EXTT11=
EXTT12=
EXTT13=
EXTT14=
EXTT15=
EXTT16=
EXTT17=
EXTT18=
EXTT19=
EXTT20=
EXTT21=
EXTT22=
EXTT23=
EXTT24=
EXTT25=
EXTT26=
EXTT27=
EXTT28=
EXTT29=
PLAYORDER=
